<?xml version="1.0" encoding="UTF-8"?>
<svg id="_Слой_2" data-name=" Слой 2" xmlns="http://www.w3.org/2000/svg" xmlns:xlink="http://www.w3.org/1999/xlink"
  viewBox="0 0 193.05 152.64">
  <defs>
    <style>
      .cls-1 {
        fill: none;
      }

      .cls-2 {
        fill: rgb(2, 34, 49);
      }

      .cls-3 {
        clip-path: url(#clippath-1);
      }

      .cls-4 {
        clip-path: url(#clippath-2);
      }

      .cls-5 {
        fill: #999;
        stroke: #000;
        stroke-miterlimit: 10;
        stroke-width: 1.03px;
      }

      .cls-6 {
        fill: rgb(0, 171, 191);
      }

      .cls-7 {
        clip-path: url(#clippath);
      }

      .cls-8 {
        fill: rgb(252, 180, 20);
      }

    </style>
    <clipPath id="clippath"> <!-- вода -->
      <rect class="cls-1" x="0" y="0" width="193.05" height="158" /> 
    </clipPath>
    <clipPath id="clippath-1"> <!-- нефть -->
      <rect id="oil-rect" class="cls-1" x="0" y="0" width="193.05" height="158"> 
        <animate attributeName="height" values="80;80;80" dur="3s" repeatCount="indefinite" />
      </rect>
    </clipPath> 
    <clipPath id="clippath-2"> <!-- газ -->
      <rect id="gas-rect" class="cls-1" x="0" y="0" width="193.05" height="158"> 
        <animate attributeName="height" values="40;40;40" dur="2s" repeatCount="indefinite" />
      </rect>
    </clipPath>
  </defs>
  <g class="cls-7">
    <path class="cls-6"
      d="M168.87,76.32c0,39.01-31.63,70.63-70.63,70.63S27.61,115.34,27.61,76.32,59.23,5.69,98.24,5.69s70.63,31.62,70.63,70.63Z" />
  </g>
  <g class="cls-3">
    <path class="cls-2"
      d="M168.87,76.32c0,39.01-31.63,70.63-70.63,70.63S27.61,115.34,27.61,76.32,59.23,5.69,98.24,5.69s70.63,31.62,70.63,70.63Z" />
  </g>
  <g class="cls-4">
    <path class="cls-8"
      d="M168.87,76.32c0,39.01-31.63,70.63-70.63,70.63S27.61,115.34,27.61,76.32,59.23,5.69,98.24,5.69s70.63,31.62,70.63,70.63Z" />
  </g>
  <path class="cls-5"
    d="M174.02,76.31C174.02,34.46,140.11.53,98.24.51,56.37.51,22.43,34.47,22.43,76.31c0,20.32,7.99,38.77,21.01,52.38.03.02.04.04.06.06,2.68,2.8,5.58,5.39,8.66,7.75,12.76,9.79,28.74,15.61,46.07,15.61s33.22-5.79,45.97-15.53c.02-.01.03-.02.04-.03l8.74-7.83h0c13.03-13.61,21.04-32.07,21.04-52.41ZM98.24,146.96c-39.01,0-70.63-31.62-70.63-70.63S59.23,5.69,98.24,5.69s70.63,31.62,70.63,70.63-31.63,70.63-70.63,70.63ZM52.16,136.5l-8.66-7.75s-.03-.04-.06-.06l-12.12,21.01c-.62,1.08.16,2.41,1.39,2.42h9.26c.78,0,1.51-.42,1.9-1.09l8.36-14.47-.07-.06ZM165.09,149.71l-12.11-20.97c-2.7,2.82-5.63,5.44-8.74,7.82-.01.01-.02.02-.04.03l8.34,14.45c.39.67,1.12,1.09,1.9,1.09h9.26c1.23-.01,2.01-1.34,1.39-2.42Z" />
</svg>